<svg id="Layer_1" data-name="Layer 1" xmlns="http://www.w3.org/2000/svg" viewBox="0 0 288.04 51.98"><defs><style>.cls-1{fill:#4a642e;}.cls-2{fill:#27aae1;}</style></defs><path class="cls-1" d="M153.65,398.06A83.44,83.44,0,0,1,167,397c9,0,15.42,2.13,19.67,6.09s6.87,9.55,6.87,17.37-2.49,14.4-7,18.88-12.09,7-21.49,7a100.08,100.08,0,0,1-11.4-.54ZM159.94,441a46,46,0,0,0,6.31.29c13.43,0,20.67-7.45,20.67-20.57.07-11.47-6.41-18.7-19.63-18.7a37.45,37.45,0,0,0-7.35.64Z" transform="translate(-153.65 -394.8)"/><path class="cls-1" d="M203.24,429.66c.13,8.56,5.56,12.09,11.92,12.09a23.48,23.48,0,0,0,9.65-1.78l1.11,4.5a28.19,28.19,0,0,1-11.62,2.21c-10.7,0-17.14-7.12-17.14-17.57s6.22-18.8,16.39-18.8c11.36,0,14.33,10,14.33,16.38a14.68,14.68,0,0,1-.22,3Zm18.54-4.56c.06-4-1.63-10.25-8.73-10.25-6.47,0-9.22,5.85-9.73,10.25Z" transform="translate(-153.65 -394.8)"/><path class="cls-1" d="M273,443.75A44.13,44.13,0,0,1,258,446.41c-7.36,0-13.43-1.86-18.15-6.41-4.18-4-6.76-10.47-6.75-18,0-14.47,10-25.07,26.24-25.07a30.44,30.44,0,0,1,12.14,2.23l-1.57,5.11a24.66,24.66,0,0,0-10.72-2.08c-11.77,0-19.49,7.33-19.49,19.48,0,12.3,7.38,19.58,18.73,19.58,4.1,0,6.88-.57,8.33-1.3V425.47H257v-5h16Z" transform="translate(-153.65 -394.8)"/><path class="cls-1" d="M301.17,445.93l-.56-4.4h-.19a13,13,0,0,1-10.65,5.19c-7,0-10.64-5-10.64-10,0-8.44,7.48-13.07,20.93-13V423c0-2.83-.8-8.08-7.93-8a16.93,16.93,0,0,0-9.07,2.6l-1.44-4.21a21.89,21.89,0,0,1,11.49-3.06c10.65,0,13.24,7.28,13.24,14.26v13a54.45,54.45,0,0,0,.53,8.33Zm-1-17.78c-6.85-.15-14.7,1.08-14.7,7.82,0,4.15,2.74,6.06,5.92,6.06a8.72,8.72,0,0,0,8.48-5.83,6.61,6.61,0,0,0,.3-2Z" transform="translate(-153.65 -394.8)"/><path class="cls-1" d="M370.44,394.8V437c0,3.09.12,6.57.29,9H365.1l-.32-6h-.17c-1.94,3.89-6.13,6.81-11.81,6.81-8.44,0-14.95-7.13-14.95-17.69-.05-11.64,7.17-18.72,15.65-18.72,5.34,0,8.94,2.51,10.5,5.29h.15V394.8Zm-6.29,30.47a13.08,13.08,0,0,0-.27-2.7,9.36,9.36,0,0,0-9.17-7.29c-6.56,0-10.48,5.75-10.48,13.4,0,7.08,3.52,12.95,10.35,12.95a9.57,9.57,0,0,0,9.26-7.6,10.64,10.64,0,0,0,.31-2.72Z" transform="translate(-153.65 -394.8)"/><path class="cls-2" d="M339.29,412.65a12.38,12.38,0,0,0-8.58-2.88,11.83,11.83,0,0,0-10.7,7.62v6.27c.86-4.74,5.84-7.94,10.3-7.94a9.6,9.6,0,0,1,5.53,2A16.69,16.69,0,0,1,339.29,412.65Z" transform="translate(-153.65 -394.8)"/><path class="cls-1" d="M381.54,429.66c.12,8.56,5.56,12.09,11.92,12.09A23.42,23.42,0,0,0,403.1,440l1.11,4.5a28.15,28.15,0,0,1-11.62,2.21c-10.7,0-17.13-7.12-17.13-17.57s6.21-18.8,16.38-18.8c11.36,0,14.33,10,14.33,16.38a15.63,15.63,0,0,1-.21,3Zm18.53-4.56c.07-4-1.63-10.25-8.73-10.25-6.47,0-9.22,5.85-9.72,10.25Z" transform="translate(-153.65 -394.8)"/><path class="cls-1" d="M412.07,420.51c0-3.63-.12-6.52-.29-9.4h5.59l.35,5.72h.18a12.85,12.85,0,0,1,11.51-6.52c4.79,0,12.28,2.88,12.28,14.84v20.78h-6.31V425.85c0-5.63-2.12-10.34-8.05-10.34a9.12,9.12,0,0,0-8.53,6.5,9.88,9.88,0,0,0-.43,2.93v21h-6.3Z" transform="translate(-153.65 -394.8)"/><polygon class="cls-2" points="164.62 51.98 158.99 51.98 158.06 15.77 164.25 15.77 164.62 51.98"/></svg>