<svg id="Layer_1" data-name="Layer 1" xmlns="http://www.w3.org/2000/svg" viewBox="0 0 239.95 39.84"><defs><style>.cls-1{fill:#004234;}</style></defs><path class="cls-1" d="M37.88,109.56a72.75,72.75,0,0,1,11.22-.8c7,0,11.54,1.31,15.06,4,3.82,2.89,6.22,7.43,6.22,14,0,7.14-2.55,12.07-6.08,15.09-3.87,3.26-9.8,4.82-17,4.82a68.71,68.71,0,0,1-9.45-.55ZM46.19,140a18,18,0,0,0,2.9.15c7.53.06,12.49-4.15,12.49-13,0-7.74-4.46-11.81-11.61-11.81a18.28,18.28,0,0,0-3.78.32Z" transform="translate(-37.88 -107.06)"/><path class="cls-1" d="M81.92,135.47c.25,3.49,3.65,5.15,7.53,5.15a21.85,21.85,0,0,0,7.35-1.15l1.12,5.69a25.68,25.68,0,0,1-9.68,1.71c-9,0-14.25-5.33-14.25-13.76,0-6.87,4.24-14.47,13.47-14.47,8.66,0,11.93,6.81,11.93,13.51a15.94,15.94,0,0,1-.3,3.32Zm9.75-5.76c0-2-.88-5.48-4.66-5.48-3.51,0-4.93,3.25-5.16,5.48Z" transform="translate(-37.88 -107.06)"/><path class="cls-1" d="M135.35,144.57a40.29,40.29,0,0,1-12.28,2.1c-6.72,0-11.57-1.71-15-5s-5.22-8.09-5.2-13.56c0-12.38,9-19.43,21-19.43a25.46,25.46,0,0,1,10.23,1.79l-1.74,6.74a20.15,20.15,0,0,0-8.56-1.58c-6.94,0-12.21,4-12.21,12.05,0,7.69,4.8,12.19,11.61,12.19a11.86,11.86,0,0,0,4.06-.52v-7.83h-5.68V125h13.72Z" transform="translate(-37.88 -107.06)"/><path class="cls-1" d="M157.2,146.29l-.49-2.69h-.18a9.51,9.51,0,0,1-7.63,3.3,8.19,8.19,0,0,1-8.63-8.27c0-7,6.22-10.39,15.68-10.38v-.34c0-1.44-.77-3.49-4.9-3.48a15.13,15.13,0,0,0-7.36,2l-1.53-5.39a21.49,21.49,0,0,1,10.39-2.42c8.89,0,11.7,5.32,11.7,11.67v9.43a39.53,39.53,0,0,0,.43,6.55Zm-1-12.79c-4.37,0-7.74,1.05-7.74,4.27a3,3,0,0,0,3.29,3.23,4.55,4.55,0,0,0,4.3-3.1,5.26,5.26,0,0,0,.15-1.44Z" transform="translate(-37.88 -107.06)"/><path class="cls-1" d="M170.81,128.16c0-4-.07-6.58-.21-8.91h7.13l.31,5h.2a7.83,7.83,0,0,1,7.21-5.61,6.85,6.85,0,0,1,1.77.16v7.9a10.57,10.57,0,0,0-2.24-.23c-3,0-5.14,1.64-5.69,4.27a9.59,9.59,0,0,0-.16,1.87v13.68h-8.32Z" transform="translate(-37.88 -107.06)"/><path class="cls-1" d="M217,107.06v31.15c0,3.07.11,6.27.22,8.08h-7.38l-.35-4h-.12A9.28,9.28,0,0,1,201,146.9c-6.3,0-11.4-5.48-11.4-13.89,0-9.08,5.59-14.37,12-14.37,3.3,0,5.83,1.19,7,3.06h.11V107.06Zm-8.3,23.67a8.82,8.82,0,0,0-.11-1.53,5,5,0,0,0-4.82-4.11c-3.8,0-5.73,3.42-5.73,7.68,0,4.55,2.22,7.43,5.67,7.43a4.92,4.92,0,0,0,4.81-4,8.23,8.23,0,0,0,.18-1.9Z" transform="translate(-37.88 -107.06)"/><path class="cls-1" d="M230.05,135.47c.25,3.49,3.66,5.15,7.53,5.15a21.85,21.85,0,0,0,7.35-1.15l1.12,5.69a25.59,25.59,0,0,1-9.67,1.71c-9,0-14.25-5.33-14.25-13.76,0-6.87,4.23-14.47,13.46-14.47,8.66,0,11.93,6.81,11.93,13.51a16.86,16.86,0,0,1-.29,3.32Zm9.75-5.76c0-2-.88-5.48-4.65-5.48-3.51,0-4.94,3.25-5.17,5.48Z" transform="translate(-37.88 -107.06)"/><path class="cls-1" d="M252.47,127.89c0-3.37-.1-6.22-.22-8.64h7.21l.38,3.75H260a9.61,9.61,0,0,1,8.25-4.36c5.46,0,9.56,3.68,9.56,11.64v16h-8.31v-15c0-3.48-1.23-5.86-4.23-5.86a4.5,4.5,0,0,0-4.21,3.17,6.18,6.18,0,0,0-.29,2.08v15.6h-8.32Z" transform="translate(-37.88 -107.06)"/></svg>