<svg id="Layer_1" data-name="Layer 1" xmlns="http://www.w3.org/2000/svg" viewBox="0 0 45.78 93.05"><defs><style>.cls-1{fill:#48823d;}.cls-2{fill:#684a1d;}.cls-3{fill:#80633c;}.cls-4{fill:#004234;}.cls-5,.cls-7{fill:none;stroke-miterlimit:10;stroke-width:2px;}.cls-5{stroke:#427dc0;}.cls-6{fill:#427dc0;}.cls-7{stroke:#004234;stroke-linecap:round;}</style></defs><path class="cls-1" d="M268.81,123.37c-.09-1.26-.45-11.85,12.83-11.92a.32.32,0,0,1,.32.34c-.08,2.09-1.06,13.18-13,11.71A.14.14,0,0,1,268.81,123.37Z" transform="translate(-245.88 -78.39)"/><path class="cls-1" d="M268.76,123.37c.09-1.26.44-11.85-12.83-11.92a.34.34,0,0,0-.33.34c.08,2.09,1.07,13.18,13,11.71A.14.14,0,0,0,268.76,123.37Z" transform="translate(-245.88 -78.39)"/><path class="cls-2" d="M248.2,130.22a11,11,0,0,1,9.35-1.78c1.75.48,3.4,1.4,5.21,1.5a8.23,8.23,0,0,0,3.67-.76,6.36,6.36,0,0,1,4.92,0,8.23,8.23,0,0,0,3.67.76c1.81-.1,3.46-1,5.21-1.5a11,11,0,0,1,9.36,1.78l.61.2A23,23,0,0,1,275,147.3c-7.48,2.36-16.06-.21-21.7-5.55a19.65,19.65,0,0,1-6-11.15Z" transform="translate(-245.88 -78.39)"/><path class="cls-3" d="M251.72,137.37c1-.54,1.82-1.33,2.87-1.79a6.59,6.59,0,0,1,4.35-.36c1.54.42,2.89,1.35,4.49,1.59a7.69,7.69,0,0,0,4.28-.86c1.82-.76,3,.28,4.67.72a7.06,7.06,0,0,0,4.63-.53,9.81,9.81,0,0,1,4.23-1.13,7.21,7.21,0,0,1,4.36,1.78c1.22,1,3-.72,1.77-1.77a9.52,9.52,0,0,0-8.88-2.15c-1.65.49-3.26,1.75-5.06,1.48a16,16,0,0,1-2.5-.93,5.48,5.48,0,0,0-2.54-.23c-1.8.24-3.17,1.55-5.07,1.05-1.66-.44-3.08-1.4-4.82-1.64a9.08,9.08,0,0,0-4.72.62,37.06,37.06,0,0,0-3.33,2c-1.41.77-.15,2.93,1.27,2.16Z" transform="translate(-245.88 -78.39)"/><path class="cls-4" d="M268.78,148.52a21.48,21.48,0,0,1-10.85-2.92V155a3.08,3.08,0,0,0,3.06,3.1h1.12v9.22l1.84,4a.26.26,0,0,0,.48,0l1.84-4v-9.22h0v-1.64a1.59,1.59,0,0,1,1.57-1.6h1.87a1.58,1.58,0,0,1,1.56,1.52v10.94l1.84,4a.27.27,0,0,0,.49,0l1.83-4v-9.22h1.13a3.08,3.08,0,0,0,3.06-3.1V145.6A21.47,21.47,0,0,1,268.78,148.52Z" transform="translate(-245.88 -78.39)"/><path class="cls-5" d="M290.67,125.84a21.9,21.9,0,1,1-43.79,0c0-12.06,13.2-28.49,21.52-46.21a.42.42,0,0,1,.76,0C277.92,97.79,290.67,113.77,290.67,125.84Z" transform="translate(-245.88 -78.39)"/><path class="cls-6" d="M274.34,104.54a5.56,5.56,0,1,1-11.12,0c0-3.06,3.35-7.24,5.46-11.74a.11.11,0,0,1,.19,0C271.1,97.41,274.34,101.47,274.34,104.54Z" transform="translate(-245.88 -78.39)"/><path class="cls-7" d="M261.18,115.33s7.85,1.44,7.6,14.46" transform="translate(-245.88 -78.39)"/><path class="cls-7" d="M276.38,115.33s-7.85,1.44-7.6,14.46" transform="translate(-245.88 -78.39)"/></svg>